<svg width="850" height="266" viewBox="0 0 850 266" fill="none" xmlns="http://www.w3.org/2000/svg">
<g clip-path="url(#clip0_2026_5)">
<path d="M210.938 18.7812C210.938 18.7812 211.198 18.7812 211.719 18.7812C212.76 18.2604 213.802 18 214.844 18C215.885 18 216.667 18.2604 217.188 18.7812C218.229 18.7812 219.271 19.3021 220.312 20.3438C221.875 20.8646 223.958 22.4271 226.562 25.0312C229.688 27.1146 231.25 28.4167 231.25 28.9375C231.771 29.4583 232.292 30.2396 232.812 31.2812C233.333 32.3229 233.333 33.3646 232.812 34.4062C232.812 35.4479 232.292 36.4896 231.25 37.5312C230.208 38.5729 229.427 39.3542 228.906 39.875C228.906 40.3958 228.646 41.1771 228.125 42.2188C227.604 42.7396 227.344 43.2604 227.344 43.7812C227.344 43.7812 227.083 44.0417 226.562 44.5625C226.562 45.0833 226.562 46.3854 226.562 48.4688C226.562 50.5521 226.562 52.8958 226.562 55.5C226.562 58.1042 226.302 63.0521 225.781 70.3438C225.781 77.1146 225.521 81.5417 225 83.625C224.479 85.1875 223.177 86.75 221.094 88.3125C219.531 89.875 218.229 91.1771 217.188 92.2188C216.667 92.7396 215.104 93.5208 212.5 94.5625C210.417 95.6042 208.854 96.125 207.812 96.125C206.771 96.125 205.729 96.125 204.688 96.125C204.167 96.125 203.385 95.8646 202.344 95.3438C201.823 94.3021 201.562 93.2604 201.562 92.2188C201.562 91.1771 201.562 90.1354 201.562 89.0938C201.562 88.0521 201.302 86.75 200.781 85.1875C200.26 83.625 199.479 82.8438 198.438 82.8438C197.917 82.8438 197.135 82.5833 196.094 82.0625C195.052 81.5417 193.49 81.5417 191.406 82.0625C189.844 82.0625 188.542 82.3229 187.5 82.8438L185.938 84.4062C187.5 85.9688 189.583 87.7917 192.188 89.875C194.792 91.9583 196.094 93.2604 196.094 93.7812C196.615 94.3021 196.354 95.6042 195.312 97.6875C194.271 99.25 193.49 100.552 192.969 101.594C192.448 102.635 192.188 103.417 192.188 103.938C192.188 103.938 192.188 104.719 192.188 106.281C192.188 107.323 192.448 109.146 192.969 111.75C193.49 114.354 193.75 115.917 193.75 116.438C194.271 116.438 195.312 115.917 196.875 114.875C198.958 113.312 200.521 112.271 201.562 111.75C202.604 111.229 204.688 109.146 207.812 105.5C211.458 101.854 213.802 99.25 214.844 97.6875C215.885 96.125 216.406 95.0833 216.406 94.5625C216.927 94.0417 217.188 93.7812 217.188 93.7812C217.708 93.7812 218.229 94.0417 218.75 94.5625C219.792 94.5625 220.833 94.8229 221.875 95.3438C222.917 95.3438 225.521 97.9479 229.688 103.156C233.854 107.844 235.938 110.708 235.938 111.75C235.938 112.792 235.938 113.833 235.938 114.875C235.938 115.396 235.417 116.177 234.375 117.219C233.854 117.74 232.812 118 231.25 118C230.208 118 228.385 118.26 225.781 118.781C223.177 119.302 218.75 119.823 212.5 120.344C206.771 120.344 202.083 120.344 198.438 120.344L192.188 119.562C192.708 124.771 192.969 129.979 192.969 135.188C193.49 139.875 194.01 143 194.531 144.562C195.052 146.125 196.094 146.906 197.656 146.906C199.219 146.385 200 146.125 200 146.125C200.521 145.604 201.823 145.344 203.906 145.344C205.99 144.823 208.073 144.562 210.156 144.562C212.24 144.042 215.104 143.781 218.75 143.781C222.917 143.26 225 143 225 143C225 143 225.26 142.74 225.781 142.219C226.302 141.177 227.083 139.875 228.125 138.312C229.688 136.75 230.729 135.708 231.25 135.188C231.771 134.667 232.292 134.406 232.812 134.406C233.854 134.406 234.375 134.406 234.375 134.406C234.896 134.406 235.417 134.406 235.938 134.406C236.979 133.885 237.76 133.625 238.281 133.625C238.802 133.104 239.583 132.583 240.625 132.062C241.667 131.021 242.448 130.76 242.969 131.281C244.01 131.281 244.792 132.062 245.312 133.625C246.354 135.188 246.875 136.229 246.875 136.75C247.396 137.271 247.917 138.312 248.438 139.875C249.479 140.917 250.26 141.958 250.781 143C251.302 144.042 251.823 145.083 252.344 146.125C253.385 147.167 253.906 148.208 253.906 149.25C254.427 149.771 254.688 150.552 254.688 151.594C254.688 152.115 254.688 153.156 254.688 154.719C254.688 156.281 254.427 157.323 253.906 157.844C253.385 158.365 252.344 158.885 250.781 159.406C249.219 159.927 247.917 160.448 246.875 160.969C245.833 161.49 244.271 161.75 242.188 161.75C240.625 161.75 230.99 161.75 213.281 161.75H182.812C181.25 160.188 179.948 159.146 178.906 158.625C178.385 158.104 178.125 157.844 178.125 157.844C178.125 157.323 178.125 155.24 178.125 151.594C178.125 147.427 177.865 143.521 177.344 139.875C177.344 136.229 177.344 134.406 177.344 134.406C177.344 133.885 176.823 133.365 175.781 132.844C175.26 131.802 174.479 130.76 173.438 129.719C172.396 128.677 171.875 127.635 171.875 126.594C171.875 125.031 172.396 123.729 173.438 122.688C174.479 121.646 175.521 120.604 176.562 119.562C178.125 118.521 178.906 117.479 178.906 116.438C178.906 114.875 178.385 111.75 177.344 107.062C176.823 102.375 176.302 98.2083 175.781 94.5625C175.26 90.9167 175 88.8333 175 88.3125C175 87.7917 174.219 87.0104 172.656 85.9688L170.312 83.625C161.979 84.1458 155.469 84.4062 150.781 84.4062C146.094 84.4062 144.01 84.4062 144.531 84.4062C145.573 83.8854 144.01 86.2292 139.844 91.4375L137.5 94.5625C139.583 97.1667 141.146 99.25 142.188 100.812C143.75 101.854 144.531 102.896 144.531 103.938C144.531 104.458 144.01 105.5 142.969 107.062C142.448 108.104 141.927 109.146 141.406 110.188C140.885 110.708 140.625 110.969 140.625 110.969C140.625 110.969 140.625 111.229 140.625 111.75C141.146 112.271 141.667 112.792 142.188 113.312C143.229 113.833 144.01 114.094 144.531 114.094C145.573 113.573 147.135 112.531 149.219 110.969C151.302 108.885 153.385 106.802 155.469 104.719C157.552 102.635 158.854 101.594 159.375 101.594C160.417 101.594 161.198 102.896 161.719 105.5C162.76 108.104 163.542 110.448 164.062 112.531C165.104 114.615 165.365 116.438 164.844 118C164.844 119.042 164.323 120.083 163.281 121.125C162.76 121.646 162.24 122.167 161.719 122.688C161.198 123.208 160.677 123.469 160.156 123.469C160.156 123.469 159.375 123.469 157.812 123.469C156.771 123.469 155.208 123.469 153.125 123.469C151.562 122.948 149.219 122.948 146.094 123.469C142.969 123.99 141.146 124.51 140.625 125.031C140.625 125.552 140.365 126.073 139.844 126.594C139.323 127.115 139.062 128.677 139.062 131.281C139.583 133.365 139.844 134.667 139.844 135.188C140.365 135.188 140.885 135.448 141.406 135.969C141.927 136.49 142.188 136.75 142.188 136.75C142.708 136.75 143.229 136.75 143.75 136.75C144.792 136.229 145.833 135.969 146.875 135.969C147.917 135.448 148.958 134.927 150 134.406C151.562 133.365 152.604 132.583 153.125 132.062C154.167 131.542 154.948 131.021 155.469 130.5C156.51 129.979 157.552 129.719 158.594 129.719C160.156 129.198 161.198 129.458 161.719 130.5C162.24 131.021 162.76 131.542 163.281 132.062C164.323 132.583 164.583 133.365 164.062 134.406C164.062 135.448 163.802 136.49 163.281 137.531C162.76 138.052 162.24 138.573 161.719 139.094C161.719 139.094 161.198 139.615 160.156 140.656C159.115 141.177 158.073 141.698 157.031 142.219C156.51 142.74 155.729 143.26 154.688 143.781C153.646 144.302 152.344 145.083 150.781 146.125C149.219 146.646 147.917 147.427 146.875 148.469C146.354 148.99 145.573 149.51 144.531 150.031C144.01 150.552 143.229 151.333 142.188 152.375C141.146 152.896 140.365 153.417 139.844 153.938C139.323 153.938 138.802 154.198 138.281 154.719C137.76 154.719 136.719 155.24 135.156 156.281C133.594 157.323 132.031 158.365 130.469 159.406C128.906 160.448 126.042 162.271 121.875 164.875C118.229 166.958 116.146 168 115.625 168C115.625 168 114.323 166.958 111.719 164.875C109.635 162.271 107.031 159.667 103.906 157.062C101.302 154.458 100 152.635 100 151.594C100.521 150.552 102.865 149.51 107.031 148.469C111.198 146.906 114.062 145.865 115.625 145.344C117.708 144.823 118.75 144.562 118.75 144.562C119.271 144.042 119.792 143.521 120.312 143C120.833 142.479 121.615 141.177 122.656 139.094C124.219 137.01 125 133.365 125 128.156C125.521 122.427 125.26 117.479 124.219 113.312C123.177 109.146 122.135 105.5 121.094 102.375C120.573 99.25 120.312 97.4271 120.312 96.9062C120.312 95.8646 120.573 95.0833 121.094 94.5625C122.135 93.5208 122.656 93 122.656 93C123.177 92.4792 123.698 92.2188 124.219 92.2188C124.74 91.6979 125 91.4375 125 91.4375C125.521 91.4375 125.521 83.1042 125 66.4375C125 49.7708 125 40.9167 125 39.875C125 38.3125 124.74 37.0104 124.219 35.9688C124.219 34.4062 123.958 33.3646 123.438 32.8438C123.438 32.3229 122.917 31.5417 121.875 30.5C120.833 29.4583 120.052 28.6771 119.531 28.1562C119.01 27.1146 118.49 26.0729 117.969 25.0312C117.969 23.4688 118.229 22.4271 118.75 21.9062C119.271 21.3854 119.531 21.125 119.531 21.125C120.052 20.6042 120.573 20.3438 121.094 20.3438C122.135 20.3438 123.958 20.3438 126.562 20.3438H132.812L140.625 25.8125L148.438 31.2812C157.292 30.7604 162.76 30.5 164.844 30.5C167.448 30.5 170.312 30.5 173.438 30.5C176.562 30.5 178.906 30.5 180.469 30.5C182.031 30.5 183.333 30.5 184.375 30.5C185.938 30.5 187.5 30.5 189.062 30.5C191.146 30.5 192.448 30.5 192.969 30.5C194.01 30.5 195.312 30.5 196.875 30.5C198.958 30.5 200.26 30.2396 200.781 29.7188C201.823 29.1979 202.865 28.1562 203.906 26.5938C205.469 24.5104 206.51 23.2083 207.031 22.6875C208.073 21.6458 208.854 20.8646 209.375 20.3438C210.417 19.3021 210.938 18.7812 210.938 18.7812ZM200.781 43.7812L199.219 42.2188C184.115 42.2188 172.135 42.2188 163.281 42.2188C154.948 42.2188 150.26 42.4792 149.219 43C148.698 43 148.177 43.2604 147.656 43.7812C147.135 44.3021 146.354 44.8229 145.312 45.3438C144.792 45.8646 144.531 46.6458 144.531 47.6875C145.052 48.7292 145.573 49.7708 146.094 50.8125C146.615 51.3333 147.135 51.8542 147.656 52.375C148.177 52.8958 148.698 53.1562 149.219 53.1562C149.74 53.1562 151.042 53.1562 153.125 53.1562C155.729 53.1562 158.333 53.4167 160.938 53.9375C164.062 53.9375 168.75 53.6771 175 53.1562C181.25 52.6354 185.156 52.1146 186.719 51.5938C188.281 51.0729 189.583 50.8125 190.625 50.8125C192.188 50.2917 193.229 50.0312 193.75 50.0312C194.792 50.0312 195.312 50.8125 195.312 52.375C195.833 53.4167 196.094 54.4583 196.094 55.5C196.615 56.5417 196.875 57.5833 196.875 58.625C196.875 59.6667 196.354 60.4479 195.312 60.9688C194.792 60.9688 194.271 61.2292 193.75 61.75C193.75 61.75 192.188 61.75 189.062 61.75C186.458 61.75 182.552 61.75 177.344 61.75C172.656 61.75 166.146 62.0104 157.812 62.5312C149.479 62.5312 145.312 62.5312 145.312 62.5312C145.312 62.5312 145.312 63.5729 145.312 65.6562C145.312 67.2188 145.312 68.7812 145.312 70.3438C145.312 71.9062 145.573 72.9479 146.094 73.4688C146.615 73.4688 148.438 73.4688 151.562 73.4688C155.208 73.4688 157.812 73.4688 159.375 73.4688C160.938 72.9479 163.281 72.6875 166.406 72.6875C170.052 72.1667 172.917 71.9062 175 71.9062C177.604 71.3854 180.208 71.125 182.812 71.125C185.417 70.6042 188.021 70.3438 190.625 70.3438C193.229 69.8229 194.792 69.5625 195.312 69.5625C195.833 69.5625 196.875 69.5625 198.438 69.5625C200 69.5625 201.042 69.3021 201.562 68.7812C202.083 67.7396 202.344 65.9167 202.344 63.3125C202.865 60.1875 203.125 57.3229 203.125 54.7188C203.646 52.1146 203.906 50.2917 203.906 49.25C203.906 47.6875 202.865 45.8646 200.781 43.7812ZM413.625 5.5C413.625 5.5 414.146 5.23958 415.188 4.71875C416.229 3.67708 417.531 3.41667 419.094 3.9375C420.656 3.9375 422.219 4.71875 423.781 6.28125C425.865 7.32292 427.167 8.10417 427.688 8.625C428.729 9.14583 429.771 9.92708 430.812 10.9688C432.375 11.4896 433.417 12.0104 433.938 12.5312C434.979 12.5312 436.281 13.0521 437.844 14.0938C439.927 15.1354 440.969 16.1771 440.969 17.2188C441.49 17.7396 441.229 18.7812 440.188 20.3438C439.667 21.9062 439.146 22.9479 438.625 23.4688C438.625 23.9896 438.365 24.7708 437.844 25.8125C437.844 26.3333 437.844 26.5938 437.844 26.5938C437.844 26.5938 437.844 27.1146 437.844 28.1562C437.844 29.1979 438.365 30.7604 439.406 32.8438C440.969 34.9271 442.792 37.2708 444.875 39.875C446.958 41.9583 450.083 45.6042 454.25 50.8125C458.938 55.5 464.146 59.4062 469.875 62.5312C475.604 65.1354 482.375 67.2188 490.188 68.7812C498 70.3438 503.469 71.6458 506.594 72.6875C510.24 73.2083 512.062 73.4688 512.062 73.4688C512.583 73.4688 512.844 73.9896 512.844 75.0312C513.365 75.5521 513.625 76.3333 513.625 77.375C513.625 77.8958 513.104 78.4167 512.062 78.9375C511.542 79.4583 509.719 80.2396 506.594 81.2812C503.469 81.8021 501.125 82.3229 499.562 82.8438C498.521 82.8438 497.219 83.1042 495.656 83.625C494.094 84.1458 493.052 84.6667 492.531 85.1875C492.01 85.1875 491.229 85.4479 490.188 85.9688C489.146 85.9688 487.844 85.9688 486.281 85.9688C485.24 85.9688 483.156 85.7083 480.031 85.1875C476.906 84.6667 474.042 84.1458 471.438 83.625C468.833 82.5833 466.75 81.8021 465.188 81.2812C463.625 80.2396 461.542 78.6771 458.938 76.5938C456.854 74.5104 454.771 72.6875 452.688 71.125C450.604 69.0417 449.562 68 449.562 68C449.562 68 449.302 69.0417 448.781 71.125C448.781 73.2083 448.521 74.5104 448 75.0312C448 75.5521 447.74 76.0729 447.219 76.5938C447.219 76.5938 446.958 76.5938 446.438 76.5938C446.438 76.5938 445.396 76.8542 443.312 77.375C441.75 77.8958 438.365 78.4167 433.156 78.9375C428.469 78.9375 423.521 79.1979 418.312 79.7188C413.625 79.7188 408.156 79.9792 401.906 80.5C395.656 80.5 392.271 80.5 391.75 80.5C391.229 80.5 390.448 79.7188 389.406 78.1562C388.885 76.5938 388.365 75.5521 387.844 75.0312C387.844 74.5104 387.583 73.9896 387.062 73.4688C386.542 72.9479 386.281 72.6875 386.281 72.6875C386.281 72.6875 386.021 72.6875 385.5 72.6875C384.979 72.6875 383.938 73.2083 382.375 74.25C381.333 75.2917 380.031 76.5938 378.469 78.1562C376.906 79.1979 375.604 80.2396 374.562 81.2812C373.521 82.3229 372.219 83.3646 370.656 84.4062C369.094 85.4479 367.01 86.4896 364.406 87.5312C362.323 88.5729 360.24 89.6146 358.156 90.6562C356.073 91.6979 353.729 93 351.125 94.5625C349.042 95.6042 347.479 96.3854 346.438 96.9062C345.917 97.4271 344.875 98.2083 343.312 99.25C341.75 99.7708 340.188 100.292 338.625 100.812C337.583 100.812 336.802 100.552 336.281 100.031C335.76 99.5104 335.24 98.9896 334.719 98.4688C334.198 97.4271 334.198 96.6458 334.719 96.125C335.24 95.0833 337.062 93.7812 340.188 92.2188C343.312 90.1354 345.656 88.5729 347.219 87.5312C348.781 86.4896 350.344 85.4479 351.906 84.4062C353.99 82.8438 355.292 81.8021 355.812 81.2812C356.333 80.7604 356.854 80.5 357.375 80.5C358.417 79.9792 359.458 79.4583 360.5 78.9375C361.542 77.8958 362.323 77.1146 362.844 76.5938C363.885 76.0729 365.448 75.2917 367.531 74.25C369.615 72.6875 372.74 69.8229 376.906 65.6562C381.594 61.4896 384.979 58.1042 387.062 55.5C389.146 52.8958 391.229 50.0312 393.312 46.9062C395.396 43.7812 397.479 40.6562 399.562 37.5312C402.167 33.8854 404.25 30.7604 405.812 28.1562C407.375 25.5521 408.677 23.4688 409.719 21.9062C410.76 20.3438 411.281 19.3021 411.281 18.7812C411.802 17.7396 412.062 16.9583 412.062 16.4375C412.062 15.9167 411.802 15.6562 411.281 15.6562C411.281 15.1354 411.281 14.6146 411.281 14.0938C411.281 13.5729 411.021 13.3125 410.5 13.3125C410.5 12.7917 410.24 12.0104 409.719 10.9688C409.719 9.92708 409.979 8.88542 410.5 7.84375C411.021 6.80208 412.062 6.02083 413.625 5.5ZM430.031 35.1875C430.031 35.1875 429.771 35.1875 429.25 35.1875C429.25 35.1875 428.99 35.1875 428.469 35.1875C428.469 34.6667 428.469 34.4062 428.469 34.4062C428.469 34.4062 428.208 34.4062 427.688 34.4062C427.688 34.4062 426.125 35.7083 423 38.3125C420.396 40.9167 415.969 45.0833 409.719 50.8125L392.531 67.2188C394.615 68.2604 395.917 69.0417 396.438 69.5625C397.479 69.5625 398.521 69.5625 399.562 69.5625C400.604 69.5625 401.906 69.5625 403.469 69.5625C405.552 69.5625 407.635 69.5625 409.719 69.5625C411.802 69.0417 415.448 68.5208 420.656 68C425.865 67.4792 428.469 67.2188 428.469 67.2188C428.99 67.2188 429.25 67.2188 429.25 67.2188C429.25 67.2188 429.51 66.9583 430.031 66.4375C430.552 65.9167 431.073 65.3958 431.594 64.875C432.115 64.3542 432.635 64.0938 433.156 64.0938C433.677 63.5729 434.198 63.0521 434.719 62.5312C435.76 62.0104 436.281 61.75 436.281 61.75C436.802 61.75 437.323 61.75 437.844 61.75C438.885 61.75 439.667 61.75 440.188 61.75C440.708 61.2292 440.969 60.9688 440.969 60.9688C440.969 60.4479 440.969 60.1875 440.969 60.1875C440.969 59.6667 440.708 59.1458 440.188 58.625C440.188 58.1042 439.927 57.5833 439.406 57.0625C438.885 56.5417 438.365 56.0208 437.844 55.5C437.844 54.4583 437.323 53.1562 436.281 51.5938C435.76 49.5104 434.979 47.9479 433.938 46.9062C433.417 45.3438 432.896 43.7812 432.375 42.2188C431.854 40.6562 431.333 39.3542 430.812 38.3125C430.292 36.75 430.031 35.7083 430.031 35.1875ZM459.719 89.875C459.719 89.875 460.5 89.3542 462.062 88.3125C464.146 86.75 465.448 85.9688 465.969 85.9688C467.01 85.9688 468.573 86.4896 470.656 87.5312C472.74 88.5729 475.083 89.875 477.688 91.4375C480.292 93 481.854 94.5625 482.375 96.125C482.896 97.6875 481.594 100.031 478.469 103.156L476.125 106.281C476.125 119.823 476.125 129.719 476.125 135.969C476.125 141.698 476.125 145.344 476.125 146.906C476.125 147.948 475.865 149.771 475.344 152.375C474.823 154.458 474.302 157.062 473.781 160.188C473.26 163.312 472.74 165.135 472.219 165.656C472.219 166.177 471.438 167.219 469.875 168.781C468.312 170.344 467.01 171.646 465.969 172.688C464.927 173.729 464.146 174.25 463.625 174.25C463.625 174.771 463.104 175.031 462.062 175.031C461.542 175.031 461.021 175.031 460.5 175.031C459.979 175.031 459.198 174.771 458.156 174.25C457.635 174.25 457.115 174.25 456.594 174.25C456.594 174.25 456.073 173.99 455.031 173.469C454.51 172.948 453.729 171.646 452.688 169.562C451.646 167.479 451.125 166.177 451.125 165.656C451.125 164.615 451.125 163.833 451.125 163.312C451.125 162.271 451.125 161.75 451.125 161.75C451.646 161.229 452.167 160.708 452.688 160.188C453.729 159.667 454.771 158.885 455.812 157.844C457.375 156.802 458.156 156.021 458.156 155.5C458.677 154.979 458.938 152.635 458.938 148.469C459.458 143.781 459.719 139.615 459.719 135.969C460.24 131.802 460.5 129.719 460.5 129.719C460.5 129.719 460.24 129.458 459.719 128.938C459.198 127.896 458.677 127.115 458.156 126.594C457.635 126.073 457.115 125.812 456.594 125.812C456.594 125.812 455.812 125.812 454.25 125.812C452.688 125.812 450.604 126.073 448 126.594C445.396 127.115 444.094 127.375 444.094 127.375C444.094 126.854 443.833 129.979 443.312 136.75C443.312 143.521 443.052 150.031 442.531 156.281C442.531 162.01 442.271 165.396 441.75 166.438C441.75 166.958 441.229 167.479 440.188 168C439.146 168.521 438.104 168.781 437.062 168.781C436.021 168.781 435.24 168.521 434.719 168C434.198 168 433.417 167.479 432.375 166.438C431.854 165.396 431.333 164.354 430.812 163.312C430.292 162.271 430.031 161.49 430.031 160.969C430.031 160.448 429.771 158.104 429.25 153.938C429.25 149.25 428.99 144.823 428.469 140.656C428.469 135.969 428.469 133.365 428.469 132.844C428.469 131.802 428.208 131.021 427.688 130.5C427.688 129.979 427.167 129.458 426.125 128.938C425.604 127.896 424.562 127.375 423 127.375C421.438 127.375 420.135 127.896 419.094 128.938C418.573 129.979 418.052 130.76 417.531 131.281C417.01 131.802 416.75 132.062 416.75 132.062C416.75 132.062 416.49 138.052 415.969 150.031V167.219C414.406 168.781 413.104 170.083 412.062 171.125C411.021 172.688 409.719 173.208 408.156 172.688C406.594 172.688 405.292 171.906 404.25 170.344C403.729 168.781 403.208 167.74 402.688 167.219C402.688 166.177 402.688 165.135 402.688 164.094C402.688 163.052 402.427 160.448 401.906 156.281C401.906 151.594 401.906 146.906 401.906 142.219C401.906 137.01 401.906 134.146 401.906 133.625C401.906 132.583 401.646 131.802 401.125 131.281C400.604 130.76 399.823 129.979 398.781 128.938C398.26 127.896 396.958 127.375 394.875 127.375C393.312 127.375 392.01 127.896 390.969 128.938C390.448 129.979 389.927 130.76 389.406 131.281C388.885 131.802 388.625 132.323 388.625 132.844C388.625 132.844 388.365 135.969 387.844 142.219C387.844 147.948 387.583 153.677 387.062 159.406C387.062 165.135 387.062 168.26 387.062 168.781C387.062 169.823 386.802 170.865 386.281 171.906C385.76 172.948 385.24 173.729 384.719 174.25C384.719 174.771 384.458 175.292 383.938 175.812C383.417 176.854 382.896 177.375 382.375 177.375C381.854 177.896 381.073 178.417 380.031 178.938C379.51 179.458 378.469 179.719 376.906 179.719C375.344 180.24 374.302 179.979 373.781 178.938C373.26 178.417 372.74 177.896 372.219 177.375C371.698 177.375 371.438 175.812 371.438 172.688C371.438 170.083 371.438 164.354 371.438 155.5C371.958 146.125 372.219 139.615 372.219 135.969C372.74 131.802 373 127.635 373 123.469C373 119.302 372.74 116.698 372.219 115.656C372.219 114.094 372.219 112.271 372.219 110.188C372.219 107.583 372.219 106.281 372.219 106.281C372.219 106.281 371.698 105.76 370.656 104.719C369.615 103.677 368.573 102.635 367.531 101.594C366.49 100.552 365.969 99.7708 365.969 99.25C365.969 98.2083 366.49 97.1667 367.531 96.125C368.573 95.0833 369.615 94.0417 370.656 93C371.698 91.9583 372.74 91.4375 373.781 91.4375C375.344 91.4375 376.906 91.9583 378.469 93C380.031 93.5208 381.333 94.0417 382.375 94.5625C383.417 95.0833 383.938 95.3438 383.938 95.3438C384.458 95.3438 388.365 95.3438 395.656 95.3438C403.469 95.3438 412.062 95.3438 421.438 95.3438C431.333 95.3438 438.625 95.3438 443.312 95.3438C448.521 94.8229 451.646 94.3021 452.688 93.7812C453.729 93.2604 454.25 93 454.25 93C454.771 93 455.552 92.7396 456.594 92.2188C457.635 91.1771 458.677 90.3958 459.719 89.875ZM457.375 103.938C457.375 103.938 457.115 103.938 456.594 103.938C456.594 103.417 456.333 103.156 455.812 103.156C455.292 102.635 454.51 102.375 453.469 102.375C452.427 102.375 450.865 102.375 448.781 102.375C446.698 102.375 445.135 102.896 444.094 103.938C443.573 104.458 443.312 105.76 443.312 107.844C443.312 109.406 443.312 111.229 443.312 113.312C443.312 115.396 443.312 116.698 443.312 117.219C443.833 117.219 445.135 117.219 447.219 117.219C449.823 116.698 452.427 116.438 455.031 116.438C457.635 116.438 459.198 116.438 459.719 116.438C460.24 115.917 460.24 115.396 459.719 114.875C459.719 114.354 459.719 114.094 459.719 114.094C459.719 113.573 459.719 113.052 459.719 112.531C459.719 111.49 459.458 110.708 458.938 110.188C458.938 109.667 458.938 109.146 458.938 108.625C458.938 107.583 458.677 106.802 458.156 106.281C458.156 105.24 457.896 104.458 457.375 103.938ZM426.906 104.719C426.906 104.719 426.125 104.198 424.562 103.156C423.521 101.594 422.219 101.594 420.656 103.156C419.094 104.198 418.052 106.021 417.531 108.625C417.01 110.708 416.75 112.531 416.75 114.094C416.75 115.135 416.75 115.917 416.75 116.438C416.75 116.438 417.01 116.698 417.531 117.219C418.052 117.74 418.573 118.26 419.094 118.781C419.615 119.302 420.396 119.562 421.438 119.562C423 119.562 424.302 119.302 425.344 118.781C426.385 117.74 427.427 116.958 428.469 116.438C429.51 115.917 430.031 114.615 430.031 112.531C430.031 109.927 428.99 107.323 426.906 104.719ZM398.781 105.5C398.781 105.5 398.26 105.24 397.219 104.719C396.698 104.198 395.917 103.938 394.875 103.938C393.833 103.417 393.052 103.677 392.531 104.719C392.01 105.24 391.49 105.76 390.969 106.281C390.969 106.281 390.708 106.802 390.188 107.844C389.667 108.365 389.146 109.146 388.625 110.188C388.625 110.708 388.365 111.75 387.844 113.312C387.323 114.354 387.062 114.875 387.062 114.875C387.062 114.875 387.323 115.396 387.844 116.438C388.365 116.958 388.885 117.74 389.406 118.781C389.927 119.823 390.448 120.604 390.969 121.125C392.01 121.646 393.052 121.906 394.094 121.906C395.656 121.385 396.958 121.125 398 121.125C399.562 120.604 400.604 120.083 401.125 119.562C401.646 119.042 401.906 118.26 401.906 117.219C401.906 115.656 401.906 114.354 401.906 113.312C401.906 111.75 401.646 110.448 401.125 109.406C401.125 108.365 400.344 107.062 398.781 105.5ZM710.062 1.59375C710.583 1.59375 711.104 1.59375 711.625 1.59375C712.146 1.07292 712.406 0.8125 712.406 0.8125C712.927 0.8125 713.448 0.8125 713.969 0.8125C715.01 0.8125 715.792 1.07292 716.312 1.59375C716.833 1.59375 717.875 2.63542 719.438 4.71875C721 6.28125 723.344 8.88542 726.469 12.5312C730.115 15.6562 731.677 17.4792 731.156 18C731.156 18.5208 729.073 20.0833 724.906 22.6875C721.26 24.7708 717.875 26.8542 714.75 28.9375C711.625 30.5 709.542 31.5417 708.5 32.0625C707.979 32.5833 707.979 33.3646 708.5 34.4062C709.021 34.9271 709.281 35.4479 709.281 35.9688C709.281 35.9688 709.802 36.4896 710.844 37.5312C711.885 38.0521 712.927 38.5729 713.969 39.0938C715.531 39.6146 717.354 40.6562 719.438 42.2188C721.521 43.2604 722.823 44.0417 723.344 44.5625C723.865 45.0833 724.125 46.3854 724.125 48.4688C724.125 50.0312 724.125 51.0729 724.125 51.5938C724.125 52.1146 723.865 52.8958 723.344 53.9375C723.344 54.9792 723.083 55.7604 722.562 56.2812L721.781 58.625C724.385 61.75 726.469 64.0938 728.031 65.6562C730.115 67.2188 731.156 68.5208 731.156 69.5625C731.677 70.0833 731.417 70.8646 730.375 71.9062C729.333 72.9479 728.292 74.25 727.25 75.8125C726.208 76.8542 725.688 77.6354 725.688 78.1562C725.688 78.6771 725.427 81.8021 724.906 87.5312C724.906 92.7396 724.646 98.4688 724.125 104.719C724.125 110.448 723.865 113.833 723.344 114.875C723.344 115.917 722.823 116.958 721.781 118C720.74 119.042 719.958 119.823 719.438 120.344C718.917 120.865 718.656 121.385 718.656 121.906C719.177 121.906 719.698 121.906 720.219 121.906C720.74 121.906 721.26 122.167 721.781 122.688C722.302 122.688 722.823 122.688 723.344 122.688C723.865 122.688 724.385 122.688 724.906 122.688C725.427 122.167 726.469 121.646 728.031 121.125C729.594 120.083 731.677 118.781 734.281 117.219C736.885 115.135 738.448 114.094 738.969 114.094C740.01 114.094 741.312 115.135 742.875 117.219C744.438 118.781 745.74 120.344 746.781 121.906C748.344 123.469 749.646 125.292 750.688 127.375C752.25 128.938 753.031 129.979 753.031 130.5C753.031 131.021 753.031 132.062 753.031 133.625C753.031 134.667 752.25 135.448 750.688 135.969C749.125 135.969 745.479 135.708 739.75 135.188C734.542 134.146 729.594 133.365 724.906 132.844C720.74 132.323 716.052 132.062 710.844 132.062C705.635 131.542 702.25 131.542 700.688 132.062L699.125 132.844C700.688 133.885 702.25 135.188 703.812 136.75C705.375 138.312 709.542 140.396 716.312 143C723.083 145.604 729.073 147.427 734.281 148.469C739.49 149.51 742.875 150.292 744.438 150.812C746 150.812 747.302 151.073 748.344 151.594C749.906 152.115 750.688 152.375 750.688 152.375C751.208 152.375 751.469 152.635 751.469 153.156C751.99 153.156 752.25 153.417 752.25 153.938C752.25 153.938 752.25 154.198 752.25 154.719C752.25 155.24 752.25 155.76 752.25 156.281C752.25 156.802 751.99 157.323 751.469 157.844C750.948 157.844 749.906 158.365 748.344 159.406C746.781 159.927 745.479 160.448 744.438 160.969C743.396 161.49 742.354 162.271 741.312 163.312C740.271 163.833 739.49 164.354 738.969 164.875C738.448 164.875 736.885 165.917 734.281 168C732.198 169.562 730.115 170.344 728.031 170.344C725.948 170.865 724.125 170.604 722.562 169.562C721.521 168.521 720.74 167.74 720.219 167.219C720.219 166.698 719.698 166.177 718.656 165.656C717.615 165.135 716.833 164.875 716.312 164.875C715.792 164.354 714.75 163.833 713.188 163.312C711.625 162.792 708.5 160.708 703.812 157.062C699.125 153.417 696 150.812 694.438 149.25C693.396 147.688 692.615 146.646 692.094 146.125C691.573 145.604 690.792 144.823 689.75 143.781C689.229 142.74 688.708 141.958 688.188 141.438C687.667 140.396 687.146 139.615 686.625 139.094C686.625 138.573 686.365 137.792 685.844 136.75C685.323 135.708 684.802 134.927 684.281 134.406L682.719 132.844C681.677 134.406 680.896 135.448 680.375 135.969C680.375 136.49 680.375 137.531 680.375 139.094C680.375 140.656 680.375 143.781 680.375 148.469C680.375 152.635 680.115 156.542 679.594 160.188C679.594 163.312 679.594 166.438 679.594 169.562C679.594 172.688 679.333 174.51 678.812 175.031C678.812 175.552 678.552 176.854 678.031 178.938C677.51 181.021 675.948 182.583 673.344 183.625C671.26 185.188 669.438 185.188 667.875 183.625C666.833 182.583 665.792 181.542 664.75 180.5C664.229 179.979 663.969 178.156 663.969 175.031C663.969 171.906 663.969 168.26 663.969 164.094C664.49 159.406 664.75 155.5 664.75 152.375C665.271 149.25 665.531 147.167 665.531 146.125C665.531 145.083 665.271 144.302 664.75 143.781C664.75 143.26 664.49 143 663.969 143C663.969 142.479 663.708 142.219 663.188 142.219C663.188 141.698 663.188 141.438 663.188 141.438C663.188 141.438 662.927 141.438 662.406 141.438C662.406 141.438 661.885 141.698 660.844 142.219C660.323 142.74 659.542 143.521 658.5 144.562C657.979 145.083 656.677 146.385 654.594 148.469C653.031 150.031 648.083 153.677 639.75 159.406C631.938 165.135 626.729 168.521 624.125 169.562C621.521 171.125 618.656 172.688 615.531 174.25C612.927 175.812 609.021 177.635 603.812 179.719C599.125 181.802 596.521 182.844 596 182.844C595.479 182.844 594.958 182.844 594.438 182.844C594.438 182.844 594.177 182.583 593.656 182.062C593.656 182.062 593.396 182.062 592.875 182.062C592.875 182.062 592.615 181.542 592.094 180.5C591.573 179.979 591.573 179.198 592.094 178.156C592.615 177.635 593.396 176.854 594.438 175.812C596 175.292 597.562 174.25 599.125 172.688C601.208 171.646 605.375 169.302 611.625 165.656C617.875 161.49 622.302 158.365 624.906 156.281C628.031 154.198 630.896 152.115 633.5 150.031C636.104 147.948 638.708 145.865 641.312 143.781C643.917 141.177 646 138.833 647.562 136.75L649.125 134.406C646 134.406 643.135 134.406 640.531 134.406C638.448 134.406 633.76 134.927 626.469 135.969C619.177 137.01 614.229 137.792 611.625 138.312C609.542 138.833 607.979 139.354 606.938 139.875C605.896 139.875 604.594 140.135 603.031 140.656C601.99 140.656 601.208 140.656 600.688 140.656C600.167 140.656 599.385 140.656 598.344 140.656C597.823 140.656 597.302 140.656 596.781 140.656C596.781 140.135 596.521 139.354 596 138.312C595.479 136.75 594.958 135.708 594.438 135.188C593.917 134.146 593.396 133.365 592.875 132.844C592.875 131.802 592.875 131.021 592.875 130.5C592.875 129.979 592.875 129.198 592.875 128.156C592.875 127.115 592.875 126.594 592.875 126.594C593.396 126.073 597.302 125.812 604.594 125.812C611.885 125.812 617.354 125.812 621 125.812C624.646 125.292 628.292 125.031 631.938 125.031C636.104 124.51 638.708 124.25 639.75 124.25C640.792 124.25 641.573 124.25 642.094 124.25C643.135 123.729 644.698 123.469 646.781 123.469C648.865 123.469 650.427 123.469 651.469 123.469C653.031 123.469 654.854 123.469 656.938 123.469C659.021 123.469 660.062 123.469 660.062 123.469C660.583 123.469 661.104 123.208 661.625 122.688C662.146 122.167 662.667 121.646 663.188 121.125C664.229 120.083 664.75 119.042 664.75 118C664.75 116.958 664.229 116.177 663.188 115.656C662.667 114.615 661.885 113.833 660.844 113.312C660.323 112.792 660.062 112.531 660.062 112.531C660.062 112.531 656.677 112.792 649.906 113.312H639.75C636.625 115.917 634.542 117.74 633.5 118.781C632.458 119.823 631.677 120.604 631.156 121.125C630.635 121.125 629.854 121.125 628.812 121.125C628.292 121.125 627.25 121.125 625.688 121.125C624.646 121.125 623.604 121.125 622.562 121.125C622.042 120.604 621.521 119.823 621 118.781C621 117.74 620.74 116.958 620.219 116.438C619.698 115.396 619.177 106.021 618.656 88.3125C618.656 70.0833 618.656 60.7083 618.656 60.1875C619.177 59.6667 619.438 59.4062 619.438 59.4062C619.958 59.4062 620.479 59.4062 621 59.4062C621.521 58.8854 622.042 58.625 622.562 58.625C623.083 58.625 623.865 58.625 624.906 58.625C626.469 58.625 627.25 58.625 627.25 58.625C627.25 58.1042 626.729 56.5417 625.688 53.9375C624.646 50.8125 623.344 47.9479 621.781 45.3438C620.74 42.2188 620.219 40.1354 620.219 39.0938C620.219 38.0521 620.74 36.2292 621.781 33.625C623.344 31.0208 624.385 28.9375 624.906 27.375C625.948 25.8125 626.469 24.5104 626.469 23.4688C626.99 22.4271 627.51 20.8646 628.031 18.7812C628.552 16.6979 629.073 13.5729 629.594 9.40625C630.635 5.23958 631.417 3.15625 631.938 3.15625C632.458 2.63542 634.021 3.9375 636.625 7.0625C639.75 10.1875 642.094 12.7917 643.656 14.875C645.74 16.4375 646.781 17.4792 646.781 18C647.302 18 647.562 18.5208 647.562 19.5625C647.562 20.6042 647.562 21.9062 647.562 23.4688C647.562 24.5104 647.302 25.2917 646.781 25.8125C646.26 26.3333 644.958 27.375 642.875 28.9375C640.792 29.9792 639.229 31.0208 638.188 32.0625C637.146 32.5833 636.104 33.1042 635.062 33.625C634.542 34.1458 634.281 34.6667 634.281 35.1875C634.281 35.1875 634.281 35.4479 634.281 35.9688C634.281 35.9688 634.542 36.4896 635.062 37.5312C636.104 38.5729 636.885 39.875 637.406 41.4375C638.448 42.4792 639.75 43.7812 641.312 45.3438C642.875 46.9062 643.656 47.9479 643.656 48.4688C644.177 48.9896 644.438 49.7708 644.438 50.8125C644.438 51.3333 644.438 51.8542 644.438 52.375C644.438 52.8958 644.177 53.6771 643.656 54.7188C643.656 55.2396 643.396 55.7604 642.875 56.2812C642.875 56.2812 642.354 56.8021 641.312 57.8438C640.792 58.8854 640.531 59.4062 640.531 59.4062C640.531 59.4062 641.052 59.6667 642.094 60.1875C643.135 60.7083 643.656 61.2292 643.656 61.75C644.177 61.75 644.958 61.75 646 61.75C647.562 61.75 649.385 61.75 651.469 61.75C654.073 61.75 656.938 61.75 660.062 61.75C663.188 61.75 664.75 61.75 664.75 61.75C665.271 61.75 665.531 61.75 665.531 61.75C666.052 61.2292 666.312 60.7083 666.312 60.1875C666.833 59.6667 667.094 59.1458 667.094 58.625C667.094 57.5833 666.573 55.7604 665.531 53.1562C664.49 50.5521 663.188 47.1667 661.625 43C660.583 38.3125 660.062 35.4479 660.062 34.4062C660.062 33.3646 660.844 31.5417 662.406 28.9375C663.969 26.3333 665.271 23.9896 666.312 21.9062C667.875 19.3021 668.917 17.2188 669.438 15.6562C669.958 14.0938 670.219 12.5312 670.219 10.9688C670.219 8.88542 670.219 7.0625 670.219 5.5C670.219 3.41667 670.479 2.11458 671 1.59375C672.042 1.07292 673.083 1.07292 674.125 1.59375C675.167 2.11458 676.208 2.63542 677.25 3.15625C678.292 3.15625 680.115 5.23958 682.719 9.40625C685.844 13.0521 687.406 15.3958 687.406 16.4375C687.406 16.9583 687.406 17.7396 687.406 18.7812C687.406 19.8229 686.885 21.125 685.844 22.6875C684.802 23.7292 683.24 25.0312 681.156 26.5938C679.594 28.1562 678.292 29.4583 677.25 30.5C676.729 31.0208 675.948 31.8021 674.906 32.8438C674.385 33.3646 674.125 33.625 674.125 33.625C674.125 33.625 674.125 33.8854 674.125 34.4062C674.125 34.4062 674.385 34.9271 674.906 35.9688C675.948 37.0104 676.99 38.0521 678.031 39.0938C679.073 40.1354 680.115 41.1771 681.156 42.2188C682.198 43.2604 682.979 44.3021 683.5 45.3438C684.542 46.3854 685.062 47.1667 685.062 47.6875C685.583 48.2083 686.104 48.9896 686.625 50.0312C687.146 51.0729 687.146 52.1146 686.625 53.1562C686.625 54.1979 686.104 55.2396 685.062 56.2812C684.542 57.3229 683.5 58.625 681.938 60.1875C680.896 61.2292 680.375 62.0104 680.375 62.5312C680.375 62.5312 680.896 62.7917 681.938 63.3125C682.979 63.3125 683.76 63.5729 684.281 64.0938C685.323 64.0938 688.448 63.8333 693.656 63.3125C698.865 62.7917 701.729 62.5312 702.25 62.5312C702.771 62.0104 703.292 61.75 703.812 61.75C704.333 61.2292 704.333 60.9688 703.812 60.9688C703.812 60.4479 703.031 58.3646 701.469 54.7188C700.427 50.5521 699.385 47.4271 698.344 45.3438C697.823 42.7396 697.302 40.3958 696.781 38.3125C696.26 35.7083 696 34.4062 696 34.4062C696 33.8854 696 33.3646 696 32.8438C696 32.3229 696.26 31.8021 696.781 31.2812C697.302 30.2396 697.823 29.4583 698.344 28.9375C699.385 27.8958 700.427 26.5938 701.469 25.0312C703.031 22.9479 704.333 20.6042 705.375 18C706.938 15.3958 707.719 13.0521 707.719 10.9688C708.24 8.88542 708.5 7.32292 708.5 6.28125C709.021 5.23958 709.281 4.45833 709.281 3.9375C709.802 2.89583 710.062 2.11458 710.062 1.59375ZM703.031 71.9062C703.031 71.9062 702.51 71.6458 701.469 71.125C700.948 70.6042 700.167 70.3438 699.125 70.3438C698.604 70.3438 696.781 70.6042 693.656 71.125C691.052 71.125 688.969 71.3854 687.406 71.9062C686.365 71.9062 685.583 72.1667 685.062 72.6875C684.542 72.6875 684.281 73.2083 684.281 74.25C684.281 74.7708 684.281 75.2917 684.281 75.8125C684.281 75.8125 684.021 76.3333 683.5 77.375C683.5 77.8958 683.24 78.4167 682.719 78.9375C682.719 78.9375 682.458 79.4583 681.938 80.5C681.938 81.5417 681.938 82.0625 681.938 82.0625C681.938 82.0625 682.198 82.3229 682.719 82.8438C683.24 82.8438 683.5 83.1042 683.5 83.625C684.021 84.1458 684.542 84.4062 685.062 84.4062C686.104 84.4062 687.667 84.4062 689.75 84.4062C691.833 84.4062 694.177 84.4062 696.781 84.4062C699.385 84.4062 700.688 84.4062 700.688 84.4062C701.208 84.4062 701.729 84.1458 702.25 83.625C702.771 83.1042 703.292 82.3229 703.812 81.2812C704.854 80.2396 705.375 78.9375 705.375 77.375C705.375 75.8125 704.594 73.9896 703.031 71.9062ZM660.844 72.6875C660.844 72.6875 660.323 72.4271 659.281 71.9062C658.76 71.3854 658.24 71.125 657.719 71.125C657.198 71.125 654.854 71.3854 650.688 71.9062C647.042 71.9062 644.438 71.9062 642.875 71.9062C641.312 71.9062 640.271 72.1667 639.75 72.6875C639.229 72.6875 638.708 72.9479 638.188 73.4688C638.188 73.9896 637.927 74.7708 637.406 75.8125C636.885 76.3333 636.365 76.8542 635.844 77.375C635.844 77.8958 636.104 78.6771 636.625 79.7188C637.667 80.2396 638.448 81.0208 638.969 82.0625C639.49 83.1042 640.271 83.8854 641.312 84.4062C642.354 84.4062 644.177 84.4062 646.781 84.4062C649.385 84.4062 651.729 84.4062 653.812 84.4062C656.417 84.4062 657.719 84.4062 657.719 84.4062C658.24 84.4062 658.76 84.1458 659.281 83.625C659.802 83.1042 660.062 82.8438 660.062 82.8438C660.583 82.3229 660.844 81.8021 660.844 81.2812C661.365 80.2396 661.625 79.4583 661.625 78.9375C661.625 78.4167 661.625 77.6354 661.625 76.5938C662.146 75.5521 662.406 75.0312 662.406 75.0312C662.406 74.5104 661.885 73.7292 660.844 72.6875ZM703.031 93.7812C703.031 93.7812 702.771 93.5208 702.25 93C701.729 92.4792 701.208 92.2188 700.688 92.2188C700.167 92.2188 698.604 92.2188 696 92.2188C693.396 92.2188 690.792 92.2188 688.188 92.2188C685.583 92.2188 684.021 92.2188 683.5 92.2188C683.5 92.2188 683.24 92.4792 682.719 93C682.198 93.5208 681.677 94.0417 681.156 94.5625C680.635 95.0833 680.375 95.6042 680.375 96.125C680.375 96.125 680.375 96.6458 680.375 97.6875C680.896 98.7292 681.417 99.7708 681.938 100.812C682.458 101.854 682.979 102.375 683.5 102.375C684.021 102.375 685.583 102.635 688.188 103.156C691.312 103.156 694.177 103.156 696.781 103.156C699.385 103.156 700.688 103.156 700.688 103.156C700.688 103.156 700.948 102.896 701.469 102.375C702.51 101.854 703.292 101.333 703.812 100.812C704.854 99.7708 705.375 98.7292 705.375 97.6875C705.375 96.6458 704.594 95.3438 703.031 93.7812ZM663.188 94.5625C663.188 94.5625 662.667 94.3021 661.625 93.7812C661.104 93.2604 660.844 93 660.844 93C660.844 93 658.5 93.2604 653.812 93.7812C649.646 93.7812 645.74 94.0417 642.094 94.5625C638.969 95.0833 637.146 95.6042 636.625 96.125C636.104 96.125 636.104 96.6458 636.625 97.6875C637.146 98.7292 637.667 100.031 638.188 101.594C638.708 102.635 639.49 103.417 640.531 103.938C641.573 103.938 643.656 103.938 646.781 103.938C649.906 103.417 652.771 103.156 655.375 103.156C657.979 103.156 659.542 103.156 660.062 103.156C661.104 102.635 661.885 102.375 662.406 102.375C662.927 101.854 663.448 101.333 663.969 100.812C665.01 99.7708 665.531 98.9896 665.531 98.4688C665.531 97.4271 664.75 96.125 663.188 94.5625ZM703.031 113.312C703.031 113.312 702.771 113.052 702.25 112.531C701.729 112.01 701.208 111.75 700.688 111.75C700.688 111.75 699.385 111.75 696.781 111.75C694.177 111.75 691.312 111.75 688.188 111.75C685.583 111.75 684.021 111.75 683.5 111.75C683.5 111.75 683.24 112.01 682.719 112.531C682.198 113.052 681.417 113.833 680.375 114.875C679.854 115.396 679.594 116.177 679.594 117.219C680.115 118.26 680.635 119.042 681.156 119.562C682.198 120.083 683.24 120.865 684.281 121.906C685.323 122.427 688.448 122.948 693.656 123.469C698.865 123.469 701.729 123.208 702.25 122.688C702.771 122.167 703.292 121.646 703.812 121.125C704.854 120.083 705.115 118.781 704.594 117.219C704.594 115.656 704.073 114.354 703.031 113.312Z" fill="black"/>
<path d="M15.04 240.416L29.936 265H22.376L10.504 244.784L6.92001 249.264V265H0.480011V222.16H6.92001V242.264H7.08801C8.09601 240.584 9.16001 239.016 10.168 237.504L21.2 222.16H29.096L15.04 240.416ZM120.296 222.16V247.528C120.296 260.24 113.967 265.616 104.84 265.616C96.0475 265.616 90.1115 260.464 90.1115 247.696V222.16H96.6075V248.088C96.6075 256.656 100.136 260.296 105.064 260.296C110.44 260.296 113.8 256.6 113.8 248.088V222.16H120.296ZM215.848 222.16V265H209.296L198.04 244.952C195.464 240.304 192.888 235.264 190.928 230.448L190.704 230.504C191.04 235.936 191.152 241.48 191.152 248.984V265H185.16V222.16H192.216L203.416 241.984C206.104 246.688 208.512 251.616 210.36 256.152L210.528 256.096C210.024 250.272 209.856 244.784 209.856 237.952V222.16H215.848ZM303.824 259.512V265H280.808V222.16H287.304V259.512H303.824ZM395.702 222.16V247.528C395.702 260.24 389.374 265.616 380.246 265.616C371.454 265.616 365.518 260.464 365.518 247.696V222.16H372.014V248.088C372.014 256.656 375.542 260.296 380.47 260.296C385.846 260.296 389.206 256.6 389.206 248.088V222.16H395.702ZM491.254 222.16V265H484.702L473.446 244.952C470.87 240.304 468.294 235.264 466.334 230.448L466.11 230.504C466.446 235.936 466.558 241.48 466.558 248.984V265H460.566V222.16H467.622L478.822 241.984C481.51 246.688 483.918 251.616 485.766 256.152L485.934 256.096C485.43 250.272 485.262 244.784 485.262 237.952V222.16H491.254ZM586.902 222.16V265H580.35L569.094 244.952C566.518 240.304 563.942 235.264 561.982 230.448L561.758 230.504C562.094 235.936 562.206 241.48 562.206 248.984V265H556.214V222.16H563.27L574.47 241.984C577.158 246.688 579.566 251.616 581.414 256.152L581.582 256.096C581.078 250.272 580.91 244.784 580.91 237.952V222.16H586.902ZM675.215 259.568V265H651.863V222.16H674.263V227.592H658.359V239.968H673.367V245.344H658.359V259.568H675.215ZM759.448 223.448L757.88 228.824C756.48 228.04 753.792 226.92 750.264 226.92C745.168 226.92 743.04 229.888 743.04 232.632C743.04 236.272 745.448 238.064 750.88 240.416C757.768 243.44 761.072 247.192 761.072 253.072C761.072 260.24 755.752 265.616 746.12 265.616C742.088 265.616 737.832 264.44 735.76 263.04L737.216 257.608C739.512 259.008 742.984 260.128 746.512 260.128C751.608 260.128 754.464 257.496 754.464 253.632C754.464 249.992 752.28 247.752 747.184 245.624C740.8 243.048 736.488 239.184 736.488 233.36C736.488 226.584 741.92 221.488 750.432 221.488C754.52 221.488 757.6 222.496 759.448 223.448ZM849.499 222.16V227.704H837.907V265H831.411V227.704H819.875V222.16H849.499Z" fill="#E40F0F"/>
</g>
<defs>
<clipPath id="clip0_2026_5">
<rect width="850" height="266" fill="white"/>
</clipPath>
</defs>
</svg>
