<svg width="113" height="100" viewBox="0 0 113 100" fill="none" xmlns="http://www.w3.org/2000/svg">
<path fill-rule="evenodd" clip-rule="evenodd" d="M68.1587 42.182V50.5754C69.8923 50.1986 71.6926 50 73.5397 50C85.2725 50 95.1259 58.0111 97.8824 68.8388C103.831 63.9255 107.619 56.5104 107.619 48.2143C107.619 38.5236 102.45 30.0348 94.7073 25.3318C92.8641 35.3027 84.088 42.8571 73.5397 42.8571C71.6816 42.8571 69.8787 42.6227 68.1587 42.182ZM68.1587 56.0966C69.8693 55.6148 71.6743 55.3571 73.5397 55.3571C83.4213 55.3571 91.6062 62.5895 93.0455 72.0273C89.3514 73.9271 85.1588 75 80.7143 75C76.1796 75 71.9069 73.883 68.1587 71.9105V56.0966ZM68.1587 77.8361C72.0183 79.4595 76.261 80.3571 80.7143 80.3571C85.0842 80.3571 89.2512 79.4929 93.0523 77.9266C91.633 87.387 83.4374 94.6429 73.5397 94.6429C71.6743 94.6429 69.8693 94.3852 68.1587 93.9034V77.8361ZM62.7778 96.4286V91.4662V84.2968V65.7032V58.8054V33.4077V28.2491V21.4841V9.44943V3.57143V2.86677C65.9436 1.04351 69.6193 0 73.5397 0C84.7274 0 93.9215 8.49795 94.9648 19.3639C105.649 24.6048 113 35.5548 113 48.2143C113 59.3586 107.303 69.1784 98.6508 74.9445V75C98.6508 88.8071 87.4082 100 73.5397 100C69.6884 100 66.0395 99.1368 62.7778 97.5941V96.4286ZM68.1587 6.27164V18.5925C72.0183 16.9691 76.261 16.0714 80.7143 16.0714C83.6182 16.0714 86.4324 16.4531 89.1095 17.1688C87.2342 10.3602 80.9738 5.35714 73.5397 5.35714C71.6529 5.35714 69.8417 5.67939 68.1587 6.27164ZM68.1587 24.518V36.5855C69.8417 37.1777 71.6529 37.5 73.5397 37.5C81.9471 37.5 88.8535 31.1012 89.6131 22.9284C86.8278 21.9568 83.8329 21.4286 80.7143 21.4286C76.1796 21.4286 71.9069 22.5455 68.1587 24.518ZM50.2222 97.5941C46.9605 99.1368 43.3116 100 39.4603 100C25.5918 100 14.3492 88.8071 14.3492 75L14.3493 74.9445C5.69676 69.1784 0 59.3586 0 48.2143C0 35.5548 7.35097 24.6048 18.0352 19.3639C19.0785 8.49795 28.2726 0 39.4603 0C43.3807 0 47.0564 1.04351 50.2222 2.86677V3.57143V9.44943V21.4841V28.2491V33.4077V58.8054V65.7032V84.2968V91.4662V96.4286V97.5941ZM39.4603 5.35714C41.3471 5.35714 43.1583 5.67939 44.8413 6.27164V18.5925C40.9817 16.9691 36.739 16.0714 32.2857 16.0714C29.3818 16.0714 26.5676 16.4531 23.8905 17.1688C25.7658 10.3602 32.0262 5.35714 39.4603 5.35714ZM32.2857 21.4286C36.8204 21.4286 41.0931 22.5455 44.8413 24.518V36.5855C43.1583 37.1777 41.3471 37.5 39.4603 37.5C31.0529 37.5 24.1465 31.1012 23.3869 22.9284C26.1722 21.9568 29.1671 21.4286 32.2857 21.4286ZM39.4603 42.8571C41.3184 42.8571 43.1213 42.6227 44.8413 42.182V50.5754C43.1077 50.1986 41.3072 50 39.4603 50C27.7275 50 17.874 58.0111 15.1176 68.8388C9.16923 63.9255 5.38095 56.5104 5.38095 48.2143C5.38095 38.5236 10.5499 30.0348 18.2927 25.3318C20.1359 35.3029 28.912 42.8571 39.4603 42.8571ZM39.4603 55.3571C41.3257 55.3571 43.1307 55.6148 44.8413 56.0966V71.9105C41.0931 73.883 36.8204 75 32.2857 75C27.8412 75 23.6486 73.9271 19.9545 72.0273C21.3938 62.5895 29.5787 55.3571 39.4603 55.3571ZM32.2857 80.3571C36.739 80.3571 40.9817 79.4595 44.8413 77.8361V93.9034C43.1307 94.3852 41.3257 94.6429 39.4603 94.6429C29.5626 94.6429 21.367 87.387 19.9477 77.9266C23.7488 79.4929 27.9158 80.3571 32.2857 80.3571Z" fill="black"/>
</svg>
