<svg width="320" height="100" viewBox="0 0 320 100" fill="none" xmlns="http://www.w3.org/2000/svg">
<path d="M125.401 53.0023C132.805 51.9425 135.373 44.5236 134.618 37.2561C134.013 30.8971 129.632 23.6296 122.682 24.2353C115.883 24.8409 111.804 31.5027 111.804 39.3758C111.804 46.7947 116.941 54.2135 125.401 53.0023Z" fill="#2932E1"/>
<path d="M145.949 29.6859C153.201 28.9288 155.77 21.51 155.618 14.2425C155.467 6.0666 151.086 -0.29243 143.985 0.0103807C137.79 0.313192 132.805 6.52082 132.502 14.8481C132.351 23.6296 137.941 30.4429 145.949 29.6859Z" fill="#2932E1"/>
<path d="M192.332 53.0023C184.929 51.9425 182.361 44.5236 183.116 37.2561C183.721 30.8971 188.102 23.6296 195.052 24.2353C201.851 24.8409 205.93 31.5027 205.93 39.3758C206.081 46.7947 200.944 54.2135 192.332 53.0023Z" fill="#2932E1"/>
<path d="M171.936 29.6858C164.684 28.9288 162.115 21.5099 162.266 14.2425C162.417 6.21799 166.95 -0.292445 173.9 0.0103662C180.094 0.313177 185.08 6.5208 185.382 14.8481C185.534 23.6296 179.943 30.4429 171.936 29.6858Z" fill="#2932E1"/>
<path d="M136.733 77.9842C136.733 81.1637 138.999 84.0404 142.474 84.0404H148.366V72.0794H142.323C138.848 71.928 136.733 74.8047 136.733 77.9842Z" fill="#2932E1"/>
<path d="M187.498 61.3296C185.231 59.0585 178.735 54.8192 173.749 46.6433C170.425 41.1927 164.835 37.5589 158.791 37.7103C152.899 37.5589 147.158 41.1927 143.834 46.6433C138.848 54.8192 132.502 59.2099 130.085 61.3296C127.214 64.0549 114.825 70.7167 117.545 85.1002C120.264 99.3324 133.56 99.938 133.56 99.938C133.56 99.938 139.906 100.544 150.633 97.9697C153.503 97.3641 156.374 97.0613 158.64 97.0613C161.058 97.0613 163.777 97.3641 166.648 97.9697C177.375 100.544 183.721 99.938 183.721 99.938C183.721 99.938 197.167 99.3324 199.736 85.1002C202.757 70.7167 190.519 64.0549 187.498 61.3296ZM155.316 90.7023H152.899H148.366H142.927C134.618 90.7023 129.783 85.2516 129.783 77.6814C129.783 70.7167 134.92 65.1147 142.474 65.1147H148.366V54.2135H155.316V90.7023ZM183.569 90.7023H169.216C163.324 90.7023 160.755 87.5227 160.755 82.9806V64.9633H167.554V80.7095C167.554 83.132 168.612 83.889 169.821 83.889H176.771V64.8119H183.569V90.7023Z" fill="#2932E1"/>
<path d="M94.1265 96.9099H105.156V58.9071H94.1265V96.9099ZM94.1265 54.6678H105.156V44.9778H94.1265V54.6678Z" fill="#DF0000"/>
<path d="M78.1114 89.491H63.4561C61.4919 89.491 59.83 87.977 59.83 85.4031C59.83 83.132 61.3409 81.3151 63.6071 81.3151H77.9603V89.491H78.1114ZM76.1473 58.9071H52.5779V66.9316H73.2766C76.2984 66.9316 78.2625 68.5971 78.2625 71.171V74.0477H60.8876C54.2398 74.0477 49.5562 78.1356 49.5562 85.5545C49.5562 93.579 54.2398 97.0613 60.8876 97.0613H88.8385V69.8083C88.8385 63.2979 83.7016 58.9071 76.1473 58.9071Z" fill="#DF0000"/>
<path d="M26.5911 65.8718H11.4825V54.9706H26.44C30.6704 54.9706 33.2389 56.9388 33.2389 60.1183C33.2389 64.3577 30.8215 65.8718 26.5911 65.8718ZM27.1955 87.6741H11.6336V76.3187H27.1955C31.2748 76.3187 34.1454 78.4384 34.1454 82.0721C34.1454 85.7059 31.2748 87.6741 27.1955 87.6741ZM46.9877 83.5862C46.9877 77.3786 43.966 72.685 38.9802 71.1709C43.3617 69.3541 45.1747 65.5689 45.1747 59.5127C45.1747 51.6396 38.678 44.675 25.2314 44.675H0V97.3641H27.9509C40.3399 97.3641 46.9877 92.5191 46.9877 83.5862Z" fill="#DF0000"/>
<path d="M251.105 74.0477H222.096V66.6288H250.954V74.0477H251.105ZM251.105 87.0685C251.105 88.5826 250.349 89.491 248.99 89.491H222.096V81.6179H251.105V87.0685ZM262.738 53.9107V46.0376H210.312V54.0621H230.255L228.593 59.3613H212.729V97.3641H253.371C257.601 97.3641 260.321 94.9416 260.321 90.5509V59.2099H239.32L240.982 53.9107H262.738Z" fill="#DF0000"/>
<path d="M315.014 54.365H307.158V56.1818H290.84V54.365H282.984V56.1818H278.3V62.6923H282.984V72.9878H283.89H290.991H307.309H311.086H311.539C313.654 72.9878 315.316 71.3224 315.316 69.2027V62.6923H320V56.1818H315.316V54.365H315.014ZM307.158 65.1147C307.158 65.8718 306.553 66.4774 305.798 66.4774H290.991V62.6923H307.309V65.1147H307.158Z" fill="#DF0000"/>
<path d="M300.661 46.0376V43.3123H291.294V46.0376H276.487H268.631V52.5481V84.646C268.631 91.9135 267.422 95.5472 266.667 97.2127H275.127C276.034 94.1846 276.638 90.0966 276.638 84.646V52.5481H319.849V46.0376H300.661Z" fill="#DF0000"/>
<path d="M306.402 89.3396C311.69 86.4629 317.885 82.9806 317.885 82.9806V75.7131H279.811V82.8292C279.811 82.8292 286.006 86.3115 291.294 89.1882C288.876 90.0966 287.063 90.7022 286.006 90.7022H277.998V97.2127H286.761C287.668 97.2127 290.236 97.2127 298.848 93.1247C307.46 97.2127 310.028 97.2127 310.935 97.2127H319.698V90.7022H311.69C310.633 90.7022 308.82 90.248 306.402 89.3396ZM298.848 86.0087C298.848 86.0087 292.351 83.132 289.783 81.6179H307.913C305.345 82.9806 298.848 86.0087 298.848 86.0087Z" fill="#DF0000"/>
</svg>
