<svg width="276" height="100" viewBox="0 0 276 100" fill="none" xmlns="http://www.w3.org/2000/svg">
<g clip-path="url(#clip0_2052_34)">
<path d="M14.1571 96.1955V92.517L7.09955 92.3658L0 92.2147V71.8401L7.09955 71.6889L14.1571 71.5378V69.8581C14.1571 68.1196 14.1571 68.1196 16.392 68.1196C18.6269 68.1196 18.6269 68.1196 18.6269 69.8581V71.5966H32.5319V80.2889C32.5319 85.5547 32.3302 89.4264 31.9858 90.1235C31.1456 92.0131 29.4652 92.4582 23.836 92.4582H18.6184V99.9076H14.1571V96.1955ZM14.0563 81.9182L13.905 75.8125H4.96548L4.81426 81.9182L4.663 87.9735H14.1991L14.0563 81.9182ZM27.5664 81.767V75.5606H18.6269V87.9735H27.5664V81.767Z" fill="black"/>
<path d="M38.1023 84.169L38.2536 68.38H71.5332L71.6844 82.6573L71.7853 96.9346L70.3485 98.4211L68.9118 99.8572H38.0183L38.1023 84.169ZM66.719 83.917L66.8198 72.1004H42.967V95.9352L54.7883 95.8344L66.5509 95.6832L66.719 83.917Z" fill="black"/>
<path d="M44.6556 92.2567C44.4904 91.6407 44.4561 90.997 44.5548 90.367C44.706 89.3256 44.9496 89.2248 48.3272 89.0737L51.9064 88.9225V85.0004H44.4539V81.5235H48.176C51.8055 81.5235 51.898 81.4731 51.898 80.2805C51.898 79.0879 51.7467 79.0879 48.3188 78.9368L44.6892 78.7856L44.538 76.9463L44.3867 75.0567H64.904L64.7528 76.9463L64.6015 78.7856L60.7787 78.9368C57.0567 79.0879 56.9055 79.1383 56.9055 80.2805C56.9055 81.4227 57.0063 81.5235 60.8795 81.5235H64.8536V85.0004H56.9055V86.9573C56.9055 88.7461 57.0567 88.9393 58.1489 88.9393C59.0395 88.9393 59.3924 88.6873 59.3924 87.9483C59.3924 87.058 59.7369 86.9573 62.123 86.9573H64.904L64.7528 89.8379L64.6015 92.6682L54.7378 92.8361C46.546 92.9537 44.9076 92.8361 44.6556 92.2567Z" fill="black"/>
<path d="M91.5042 99.6053C91.1959 98.3907 91.0797 97.1353 91.1598 95.8848V92.5254L84.3543 92.3742L77.4984 92.2231L77.3472 81.9182L77.2463 71.5882H91.1514V68.0608L93.5375 68.212C95.7724 68.3631 95.8732 68.4135 96.058 69.9505L96.2093 71.5378L103.015 71.6889L109.82 71.8401L109.971 80.6249C110.072 89.2668 110.072 89.4096 108.879 90.8037C107.686 92.1979 107.535 92.1978 101.923 92.3406L96.2093 92.5422L96.058 96.0695L95.9068 99.6473L93.924 99.7984C93.1143 99.9447 92.2804 99.8782 91.5042 99.6053ZM91.1598 81.7754V75.569H82.2118V87.9818H91.1514L91.1598 81.7754ZM104.972 81.9266L104.821 75.8209L100.503 75.6698L96.1337 75.5186V87.9818H105.124L104.972 81.9266Z" fill="black"/>
<path d="M115.491 97.724C115.491 96.0444 115.693 95.4396 116.239 95.4396C119.171 95.4396 128.657 90.4762 129.304 88.6369C129.455 88.1414 127.867 87.9902 122.499 87.9902H115.491V86.0082C115.491 84.3285 115.643 84.0262 116.483 84.0262C117.323 84.0262 117.474 83.6819 117.474 77.8198V71.6133H131.379V68.086L133.765 68.2372C136 68.3884 136.101 68.4388 136.286 70.0261L136.437 71.6133H149.763V84.0178H151.006C152.149 84.0178 152.249 84.2194 152.249 85.9998V87.9818H137.748L139.428 89.6615C141.319 91.6939 146.083 94.1799 149.712 95.0281L152.291 95.6748V99.9916L150.006 99.6473C145.3 98.7949 140.829 96.9512 136.891 94.2387C133.807 91.9039 133.261 91.8032 132.026 93.5416C130.791 95.2801 122.389 98.8578 117.668 99.6473L115.533 99.9916L115.491 97.724ZM131.388 79.8018V75.6026H122.448V84.0178H131.388V79.8018ZM145.293 79.8018V75.6026H136.32V84.0178H145.259L145.293 79.8018Z" fill="black"/>
<path d="M202.921 94.9442C202.979 93.287 202.912 91.6277 202.719 89.9807C201.852 90.6631 201.038 91.4099 200.283 92.2147C198.989 93.4576 197.762 94.4486 197.451 94.4486C197.14 94.4486 196.956 93.2561 196.956 91.6688C196.956 88.9897 197.056 88.8385 199.636 86.2602C201.123 84.7739 202.439 83.1259 203.559 81.3471L204.803 79.1131L201.03 78.9619L197.208 78.8108V74.8383L200.14 74.6872L203.072 74.536L201.392 72.7975L199.711 71.0087L201.451 69.5725L203.131 68.1364L205.265 70.2192C207.298 72.2012 207.349 72.3524 206.66 73.4442C205.971 74.536 205.912 74.5864 208.399 74.5864C209.244 74.5275 210.094 74.5954 210.919 74.7879C210.919 74.8383 210.373 76.4676 209.726 78.2649L208.533 81.5403L209.726 82.9764C210.167 83.5034 210.5 84.1123 210.704 84.768C210.909 85.4238 210.982 86.1136 210.919 86.7977V89.1829L209.18 87.5032L207.441 85.8235V99.9244H202.971L202.921 94.9442Z" fill="black"/>
<path d="M212.356 99.7564C212.356 99.6557 214.037 96.2795 216.078 92.307L219.8 85.0088V76.5684H224.27V81.4815C224.27 86.2518 224.32 86.445 225.413 86.5961C226.505 86.7473 226.505 86.9909 226.656 91.1145L226.807 95.4313H235.209V99.8992H229.58C222.774 99.8992 222.674 99.7984 222.329 94.4906L222.077 90.7197L219.557 95.2885L217.036 99.9076H214.7C213.916 99.9355 213.131 99.8849 212.356 99.7564Z" fill="black"/>
<path d="M241.023 99.5549C240.822 99.4037 240.679 96.0276 240.679 92.1055V85.0088L257.222 85.1096L273.715 85.2608L273.866 90.3754C274.017 96.0863 273.32 98.3707 271.186 99.3617C269.833 99.958 241.62 100.151 241.023 99.5549ZM268.497 92.4582V88.9812H245.644V95.9352H268.497V92.4582Z" fill="black"/>
<path d="M174.304 99.009C173.633 98.4273 173.091 97.711 172.715 96.9065C172.339 96.102 172.136 95.2274 172.12 94.3394V92.4498H158.677V72.1004H172.12V68.6235H177.085V72.1004H190.99V89.5776L189.553 91.0137C188.117 92.4498 188.016 92.4498 182.597 92.4498H177.085V95.4313H193.973V99.4037H184.445C179.169 99.4121 174.607 99.2105 174.304 99.009ZM172.12 86.4953V84.5133H163.205V88.4858H172.145L172.12 86.4953ZM186.025 86.4953V84.5133H177.085V88.4858H186.025V86.4953ZM172.12 78.0549V76.0393H163.205V80.0117H172.145L172.12 78.0549ZM186.025 78.0549V76.0393H177.085V80.0117H186.025V78.0549Z" fill="black"/>
<path d="M212.356 78.055V69.119H232.227V86.9573H227.757V72.596H216.834V86.9573H212.356V78.055Z" fill="black"/>
<path d="M271.127 83.2703C270.287 82.674 267.354 82.5229 254.533 82.4305L238.939 82.2793V80.5408C238.939 79.0543 239.091 78.8024 240.233 78.6512C241.174 78.5504 242.754 77.1143 245.846 73.5366L250.164 68.6235H253.105C254.693 68.6235 256.037 68.8251 256.037 69.0686C256.028 69.2066 255.982 69.3396 255.904 69.4535C255.826 69.5674 255.718 69.6578 255.592 69.7153C253.129 72.2521 250.807 74.9212 248.635 77.7106C247.988 78.5084 248.484 78.5504 257.079 78.5504H266.17L264.582 76.8707C263.044 75.2834 262.549 74.0405 263.439 74.0405C264.052 73.7675 264.594 73.3599 265.027 72.8479L266.17 71.6554L271.034 76.1233C275.353 80.1461 276.798 82.0022 275.504 82.0022C274.91 82.2147 274.368 82.5527 273.916 82.9932C272.564 84.2194 272.429 84.2194 271.127 83.2703Z" fill="black"/>
<path d="M49.4278 51.0456C43.4205 49.0132 41.0848 47.7702 37.1612 44.6376C32.893 41.211 30.2548 37.5829 28.8181 33.0646C26.7849 26.9589 27.3814 21.3068 30.759 15.0416C32.4393 12.0097 37.9593 7.19745 42.6811 4.76191C49.8311 1.04141 52.8138 0.495507 65.9794 0.243554L77.2547 -0.00838817V13.4963H66.5844C54.6118 13.4963 53.1414 13.7902 48.6044 17.1244C44.0675 20.4586 42.2947 26.5558 44.4035 30.7298C45.9288 33.797 48.4746 36.2378 51.6039 37.6333C54.3345 38.8763 54.8302 38.9267 59.552 38.6747C64.0797 38.3626 68.5521 37.4967 72.8689 36.0964C73.3646 35.8949 73.8603 36.4408 74.4569 37.9357C74.9526 39.1282 75.6499 40.7659 76.0448 41.5638C76.4397 42.3616 77.1875 44.1421 77.7252 45.5362L78.767 47.9718L77.6244 48.862C76.6497 49.4522 75.5978 49.9044 74.4989 50.2058C73.4066 50.4577 70.9701 51.1464 69.0377 51.6923C66.3575 52.4901 64.2655 52.7337 59.8461 52.6833C54.7378 52.6833 53.6455 52.5237 49.4278 51.0456Z" fill="black"/>
<path d="M98.6038 51.096C92.7897 49.0636 90.7565 48.0138 86.7824 45.0407C80.5735 40.3712 77.2464 34.5175 76.8515 27.5636C76.6498 23.9859 76.8011 22.9949 78.0445 19.4171C79.288 15.8394 79.9854 14.8484 83.3125 11.2707C86.4884 7.91132 87.9839 6.75233 91.5127 4.91307C94.2689 3.53295 97.146 2.40844 100.108 1.55371C103.931 0.461911 105.325 0.361144 115.231 0.361144H126.153L126.305 6.96229L126.456 13.513H115.744C105.258 13.513 105.014 13.5131 101.788 14.8568C94.1424 18.0314 90.7145 25.0861 93.8904 31.091C95.4067 34.1212 97.9622 36.5058 101.091 37.8097C103.611 38.9015 104.267 38.9519 108.787 38.6999C113.181 38.376 117.519 37.51 121.7 36.1216C122.591 35.8697 122.994 36.4156 124.876 40.6904C127.96 47.8374 128.052 48.1901 126.767 48.9796C124.661 49.9017 122.483 50.6489 120.255 51.2136C116.655 52.3994 112.868 52.9202 109.081 52.7505C103.872 52.6833 102.872 52.5237 98.6038 51.096Z" fill="black"/>
<path d="M148.771 32.8714V13.5047H130.346L130.497 6.95388L130.648 0.352738L160.055 0.201572L189.461 0.10077L190.209 1.19258C190.8 2.3259 191.297 3.50559 191.696 4.7199C192.167 6.07996 192.728 7.40707 193.376 8.69236C193.865 9.68228 194.264 10.7138 194.57 11.7746C194.771 12.6144 195.964 15.747 197.199 18.7285C198.434 21.7099 199.485 24.389 199.485 24.6074C199.769 25.5399 200.117 26.4519 200.526 27.3369C201.123 28.6302 202.013 30.8138 202.467 32.1491C202.921 33.4845 203.509 34.6687 203.761 34.6687C204.013 34.6687 204.702 33.4257 205.299 31.9392C205.895 30.4527 206.735 28.3615 207.189 27.3704C207.643 26.3794 208.18 24.8509 208.433 24.1455C208.878 22.7093 211.558 16.0494 212.407 14.3109C212.659 13.765 213.205 12.4213 213.6 11.3295C215.389 6.29043 217.322 1.54531 217.868 0.89863C218.414 0.251952 220.002 0.151184 225.917 0.151184H233.369L233.117 1.29336C232.865 2.43554 232.126 4.32518 228.849 12.3625C227.757 15.1423 226.816 17.5275 226.816 17.7291C226.565 18.5639 226.251 19.3782 225.875 20.1646C224.782 22.6002 223.043 26.8834 222.052 29.6968C221.657 30.7886 221.111 32.1324 220.859 32.6783C219.918 34.6603 217.28 41.1691 216.834 42.706C216.528 43.7338 216.128 44.7316 215.641 45.6874C215.041 46.976 214.527 48.3031 214.104 49.6599L213.264 52.2885H194.074L193.729 50.9448C193.385 49.2651 188.915 37.8349 187.218 34.0136C186.721 33.0128 186.321 31.9666 186.025 30.8894C185.724 29.7739 185.308 28.6929 184.781 27.6644C184.267 26.648 183.851 25.585 183.538 24.4898C183.236 23.4206 182.819 22.3872 182.294 21.4076C181.744 20.39 181.326 19.3062 181.051 18.1826C180.861 17.2596 180.526 16.3725 180.06 15.5539L179.068 13.5718H163.205V52.3054H148.771V32.8714Z" fill="black"/>
<path d="M230.739 43.5458V34.887H248.618V52.2634H230.739V43.5458Z" fill="#FF0000"/>
<path d="M230.815 43.5458V34.9374H248.459V52.1542H230.815V43.5458Z" fill="#FF0000"/>
<path d="M230.815 43.5458V34.9374H248.459V52.1542H230.815V43.5458Z" fill="#FF0000"/>
<path d="M230.815 43.5458V34.9374H248.459V52.1542H230.815V43.5458Z" fill="#FF0000"/>
</g>
<defs>
<clipPath id="clip0_2052_34">
<rect width="276" height="100" fill="white"/>
</clipPath>
</defs>
</svg>
