<svg width="440" height="100" viewBox="0 0 440 100" fill="none" xmlns="http://www.w3.org/2000/svg">
<g clip-path="url(#clip0_2062_140)">
<path d="M153.318 53.4185C158.722 61.9347 169.003 69.4207 180.327 72.5817C178.958 73.7459 177.272 76.0672 176.425 77.6124C167.316 74.5784 159.245 68.7081 153.325 61.4196V79.4186H147.01V61.6101C141.02 68.7716 132.955 74.3809 123.973 77.4148C123.063 75.8696 121.306 73.6118 120.001 72.3841C127.487 70.3168 134.514 66.3868 139.983 61.4831H135.495V58.7737C131.135 59.4864 126.901 60.2554 123.197 60.9045L122.026 55.9373C125.603 55.4858 130.486 54.8437 135.495 54.0676V49.2909H124.044V44.5848H135.495V40.5207H141.154V60.3895C143.433 58.1952 145.451 55.8103 147.01 53.355V38.8415H122.153V33.4227H147.01V28.519C140.371 28.9706 133.668 29.2316 127.487 29.3586C127.424 27.877 126.704 25.5556 126.189 24.2644C141.224 23.8129 159.315 22.5852 170.181 20.4544L172.848 25.6121C167.316 26.6422 160.486 27.4818 153.325 28.0675V33.4227H178.253V38.8415H153.325V53.4185H153.318ZM164.642 40.3867V46.3205C167.697 45.1563 170.823 43.8016 172.904 42.581L176.552 47.0331C172.975 48.5148 168.551 49.94 164.642 51.0972V55.1612C164.642 56.777 164.967 56.9675 166.66 56.9675H171.994C173.427 56.9675 173.751 56.4524 173.949 52.5788C174.993 53.482 177.265 54.3216 178.831 54.6462C178.182 60.5165 176.686 61.9982 172.65 61.9982H165.884C160.416 61.9982 159.118 60.5165 159.118 55.2247V40.3867H164.649H164.642Z" fill="#54C3F1"/>
<path d="M210.786 36.8376C210.588 39.8716 210.398 42.969 210.003 45.9959H237.661C237.661 45.9959 237.597 47.8657 237.4 48.7053C236.165 66.5138 234.93 73.6118 232.327 76.2506C230.57 77.9934 228.877 78.5084 226.146 78.7695C223.74 78.96 219.507 78.8965 215.146 78.6425C215.083 76.8997 214.236 74.4514 213.001 72.7722C217.623 73.1602 222.047 73.2237 223.867 73.2237C225.299 73.2237 226.146 73.0967 226.993 72.4476C228.813 70.9659 229.984 64.9615 231.029 51.8027H209.1C207.018 62.9013 202.27 73.2872 190.226 79.7361C189.315 78.1204 187.425 76.0601 185.802 74.8324C201.938 66.7043 203.434 51.0266 204.09 36.8306H187.044V30.9603H214.899C214.053 28.3779 212.296 24.7019 210.8 21.929L216.72 19.7347C218.413 22.6416 220.431 26.5081 221.341 29.0905L216.981 30.9603H243.729V36.8306H210.8L210.786 36.8376Z" fill="#54C3F1"/>
<path d="M285.173 44.3237C289.597 57.7436 297.795 68.6446 310.093 73.7459C308.597 75.037 306.58 77.5489 305.606 79.3622C293.435 73.7459 285.561 63.2964 280.488 49.6225C277.172 61.2997 270.137 72.4617 255.37 79.3622C254.396 77.7464 252.441 75.6227 250.748 74.3315C266.235 67.6215 272.55 56.0079 275.154 44.3308H252.053V38.1359H276.261C277.045 31.687 276.974 25.4921 277.045 20.3274H283.62C283.557 25.5556 283.493 31.7435 282.71 38.1359H308.936V44.3308H285.187L285.173 44.3237Z" fill="#54C3F1"/>
<path d="M329.171 41.6778C326.045 45.0293 322.144 48.1973 318.496 50.1305C317.847 48.7758 316.478 46.772 315.307 45.6149C319.533 43.9357 324.154 40.4572 327.28 36.7106H316.28V31.934H329.164V20.2568H334.696V31.934H347.516V36.7106H336.389C339.578 38.5804 344.327 41.5508 345.695 42.454L342.443 46.7085C340.883 45.2268 337.56 42.581 334.696 40.4502V48.4513H329.164V41.6778H329.171ZM339.324 75.1005C337.892 74.0069 336.071 72.7792 333.99 71.615C329.503 75.1005 324.161 77.4854 318.242 79.0376C317.72 77.7464 316.548 75.6156 315.511 74.522C320.521 73.3578 325.142 71.5515 329.115 68.9057C325.989 67.2264 322.609 65.7447 319.547 64.517C320.845 62.7743 322.151 60.453 323.519 58.1317H317.529V53.228H325.989C326.638 51.8098 327.224 50.5186 327.619 49.2274L333.023 50.2575C332.635 51.2242 332.177 52.1908 331.725 53.228H341.293L342.266 52.974L345.519 54.2652C343.889 59.8109 341.293 64.3265 337.906 68.0096C339.79 69.1032 341.617 70.1404 342.979 71.107L339.338 75.1076L339.324 75.1005ZM322.144 31.807C321.621 29.5491 319.999 26.0636 318.305 23.4813L322.729 21.675C324.423 24.1233 326.179 27.4818 326.765 29.8031L322.144 31.7999V31.807ZM329.369 58.1317C328.522 59.6769 327.675 61.1656 326.899 62.5203C329.044 63.4234 331.196 64.4535 333.341 65.5542C335.486 63.4234 337.313 60.9751 338.675 58.1317H329.369ZM346.288 23.4178C344.334 26.3176 342.252 29.4151 340.495 31.4189L336.594 29.6761C338.153 27.3548 340.107 23.8058 341.215 21.287L346.288 23.4178ZM370.299 38.0018C368.93 47.3577 366.912 55.1612 363.596 61.6172C366.785 67.0994 370.884 71.4245 376.028 74.2609C374.659 75.291 372.973 77.4854 372.055 78.9036C367.307 76.0672 363.469 71.9326 360.343 67.0359C356.632 72.2642 351.82 76.4552 345.441 79.7432C344.919 78.5155 343.226 76.0037 342.252 74.8395C349.019 71.6785 353.901 67.3534 357.415 61.5466C355.27 56.904 353.513 51.7392 352.208 46.0594C351.037 48.7688 349.668 51.1536 348.235 53.2209C347.325 52.1908 345.046 50.321 343.748 49.4814C348.821 42.708 351.749 31.9975 353.252 20.7084L358.784 21.4845C358.262 25.224 357.549 28.9071 356.702 32.3855H374.532V38.0018H370.306H370.299ZM355.658 38.0018C356.766 44.1967 358.389 50.0035 360.541 55.2953C362.424 50.2646 363.793 44.5848 364.703 38.0018H355.658Z" fill="#54C3F1"/>
<path d="M393.99 55.4858V72.2571C393.99 75.2276 393.405 76.8362 391.648 77.7394C389.891 78.706 387.288 78.9036 383.188 78.9036C383.061 77.4854 382.341 74.903 381.558 73.3578C384.162 73.4213 386.568 73.4213 387.287 73.4213C388.134 73.4213 388.459 73.1673 388.459 72.2571V57.2215L381.431 59.3523L380.062 53.5455C382.405 52.9669 385.27 52.1273 388.459 51.2242V38.3828H380.909V32.8371H388.459V20.3838H393.99V32.8371H400.954V38.3828H393.99V49.6719L400.235 47.8657L401.081 53.2844L393.99 55.4787V55.4858ZM426.207 51.8733V59.0348H438.244V79.2916H432.775V77.2243H414.748V79.4821H409.478V59.0277H420.541V51.8662H408.955C408.243 61.2855 406.352 71.9326 401.208 79.4821C400.101 78.5155 397.631 76.6457 396.199 76.0601C402.838 66.3797 403.424 52.4448 403.424 42.3199V22.9662H437.983V40.3867H426.207V46.8355H440V51.8662H426.207V51.8733ZM420.541 46.8426V40.3937H409.28V42.327C409.28 43.7452 409.28 45.2268 409.217 46.8426H420.541ZM409.287 28.1945V35.1584H432.26V28.1945H409.287ZM432.775 64.0655H414.748V72.3841H432.775V64.0655Z" fill="#54C3F1"/>
<path d="M75.0008 0H24.9979C11.1919 0 0 11.1921 0 24.9982V75.0018C0 88.8079 11.1919 100 24.9979 100H75.0008C88.8068 100 99.9987 88.8079 99.9987 75.0018V24.9982C99.9987 11.1921 88.8068 0 75.0008 0Z" fill="url(#paint0_linear_2062_140)"/>
<path d="M66.4644 74.1621H56.9322C55.6198 72.4053 54.7379 69.6747 54.3004 65.9493C50.3563 72.0807 43.343 75.2558 33.2675 75.4816C23.192 75.037 17.9284 70.5496 17.498 62.0123C17.498 53.2562 23.5236 48.1056 35.5676 46.5674C46.0806 45.0363 52.2119 43.2795 53.9688 41.3109C54.4062 34.5234 50.4621 31.3483 42.1364 31.7787C34.4669 31.7787 29.9795 34.7351 28.6672 40.6477L19.135 39.0037C21.5409 29.147 29.2105 24.3279 42.1364 24.5467C57.2497 24.1092 64.4817 30.5722 63.8256 43.9357V63.9808C63.8256 67.9249 64.7005 71.3187 66.4573 74.1692L66.4644 74.1621ZM54.632 53.7924V47.5482C52.0003 49.9612 47.1812 51.6052 40.175 52.4801C31.4118 53.5808 27.1361 56.6429 27.3619 61.6807C27.1431 66.4997 30.5369 68.7998 37.5503 68.5811C48.0632 67.9249 53.7571 62.993 54.6391 53.7924H54.632Z" fill="url(#paint1_linear_2062_140)"/>
<path d="M82.5009 39.674H79.5093V30.9038C79.5093 28.2438 78.3804 26.9527 76.1226 27.0162C73.7942 27.1502 72.4678 28.512 72.1361 31.1014V39.674H69.1445V24.9277H72.1361V27.5171C73.3356 25.6544 75.029 24.6596 77.2162 24.5255C80.8005 24.462 82.5644 26.4517 82.5009 30.5017V39.667V39.674Z" fill="url(#paint2_linear_2062_140)"/>
</g>
<defs>
<linearGradient id="paint0_linear_2062_140" x1="50.0029" y1="100" x2="50.0029" y2="0" gradientUnits="userSpaceOnUse">
<stop stop-color="#0099D9"/>
<stop offset="1" stop-color="#54C3F1"/>
</linearGradient>
<linearGradient id="paint1_linear_2062_140" x1="41.9812" y1="24.5255" x2="41.9812" y2="75.4745" gradientUnits="userSpaceOnUse">
<stop stop-color="white"/>
<stop offset="1" stop-color="white" stop-opacity="0.5"/>
</linearGradient>
<linearGradient id="paint2_linear_2062_140" x1="75.8192" y1="24.5255" x2="75.8192" y2="39.674" gradientUnits="userSpaceOnUse">
<stop stop-color="white"/>
<stop offset="1" stop-color="white" stop-opacity="0.5"/>
</linearGradient>
<clipPath id="clip0_2062_140">
<rect width="440" height="100" fill="white"/>
</clipPath>
</defs>
</svg>
