<svg width="311" height="100" viewBox="0 0 311 100" fill="none" xmlns="http://www.w3.org/2000/svg">
<g clip-path="url(#clip0_2045_29)">
<path d="M294.725 11.2222H16.386V88.8889H294.725V11.2222Z" fill="white"/>
<path d="M0 100V0H311V100H0ZM64.8753 62.6667H40.129V21H28.7591V72.6667H64.8753V62.6667ZM102.663 39C98.9849 34.6667 93.6344 32.3333 86.9462 32.3333C74.9075 32.3333 65.8785 41.3333 65.8785 53C65.8785 65 74.9075 73.6667 88.2839 73.6667C95.6409 73.6667 103.332 70 106.676 66L99.6538 60.6667C94.972 64 92.2968 65 88.2839 65C84.6054 65 81.5957 63.6667 79.5892 61.6667L107.68 50C107.011 45.6667 105.339 41.6667 102.663 39ZM151.821 48C151.821 39 145.133 32.3333 135.77 32.3333C131.088 32.3333 126.072 34.3333 122.728 38.6667V33H111.692V72.6667H122.728V50C122.728 46 125.738 41.6667 131.757 41.6667C136.439 41.6667 141.12 44.6667 141.12 50V72.6667H152.156V48H151.821ZM177.571 32.3333C165.532 32.3333 156.169 41.3333 156.169 53C156.169 64.6667 165.532 73.6667 177.571 73.6667C189.61 73.6667 198.973 64.6667 198.973 53C198.973 41.3333 189.61 32.3333 177.571 32.3333ZM229.404 33L219.372 60L209.34 33H197.301L213.687 72.6667H225.726L242.112 33H229.404ZM261.842 32.3333C249.803 32.3333 240.44 41.3333 240.44 53C240.44 64.6667 249.803 73.6667 261.842 73.6667C273.881 73.6667 283.244 64.6667 283.244 53C283.244 41.3333 273.881 32.3333 261.842 32.3333ZM261.842 64C255.823 64 251.141 59 251.141 52.6667C251.141 46 255.488 41.3333 261.842 41.3333C267.861 41.3333 272.543 46.3333 272.543 52.6667C272.543 59.3333 267.861 64 261.842 64ZM177.571 64C171.552 64 166.87 59 166.87 52.6667C166.87 46 171.217 41.3333 177.571 41.3333C183.59 41.3333 188.272 46.3333 188.272 52.6667C188.272 59.3333 183.59 64 177.571 64ZM78.9204 45C80.9269 42.6667 83.6022 41 87.2806 41C91.2935 41 94.3032 43.3333 95.6409 46.6667L76.5796 54.6667C75.9107 50.3333 77.2484 47.3333 78.9204 45Z" fill="#E60012"/>
</g>
<defs>
<clipPath id="clip0_2045_29">
<rect width="311" height="100" fill="white"/>
</clipPath>
</defs>
</svg>
