<svg width="744" height="100" viewBox="0 0 744 100" fill="none" xmlns="http://www.w3.org/2000/svg">
<g clip-path="url(#clip0_2045_35)">
<path d="M484.626 31.0309H462.049L470.915 43.8144H482.358L472.77 98.4536H492.77L502.357 43.8144H527.408L487.925 12.0619L484.626 31.0309Z" fill="#0052D9"/>
<path d="M93.3995 0H2.47416L0 14.3299H35.3598L20.5149 98.4536H40.5143L55.3593 14.3299H90.9253L93.3995 0Z" fill="#0052D9"/>
<path d="M118.553 57.6289H83.8121C85.8739 50.7217 92.6778 41.2371 104.946 41.2371C118.347 41.134 119.79 51.3402 118.553 57.6289ZM108.244 29.5876C82.7812 29.5876 66.493 45.567 63.2972 64.2268C59.689 84.8454 72.3691 100 98.0385 100C109.481 100 120.203 97.8351 128.965 92.9897L131.646 77.6289C123.089 83.7113 112.265 87.1134 103.09 87.1134C90.3067 87.1134 80.1008 81.7526 81.7503 69.5876H134.635C135.254 68.1443 136.079 65.567 136.594 62.4742C139.171 47.5258 133.914 29.5876 108.244 29.5876Z" fill="#0052D9"/>
<path d="M196.592 29.5876C184.119 29.5876 174.737 34.7423 170.305 40H169.789L152.161 29.5876C151.542 35.4639 150.614 43.4021 149.274 51.134L141.027 98.4536H161.026L167.933 58.7629C168.243 56.8041 168.964 54.7423 169.789 53.4021C172.779 48.1443 179.067 43.4021 187.005 43.4021C197.933 43.4021 200.922 50.8247 199.273 60.4124L192.778 98.4536H212.778L219.788 58.4536C223.499 37.1134 210.407 29.5876 196.592 29.5876Z" fill="#0052D9"/>
<path d="M436.689 29.5876C424.215 29.5876 414.834 34.7423 410.401 40H409.886L392.257 29.5876C391.639 35.4639 390.711 43.4021 389.371 51.134L381.124 98.4536H401.123L408.236 58.7629C408.545 56.8041 409.267 54.7423 410.092 53.4021C413.081 48.1443 419.37 43.4021 427.308 43.4021C438.235 43.4021 441.225 50.8247 439.575 60.4124L432.875 98.4536H452.874L459.884 58.4536C463.595 37.1134 450.503 29.5876 436.689 29.5876Z" fill="#0052D9"/>
<path d="M358.753 57.6289H323.909C325.97 50.7217 332.774 41.2371 345.042 41.2371C358.444 41.134 359.887 51.3402 358.753 57.6289ZM348.341 29.5876C322.878 29.5876 306.589 45.567 303.394 64.2268C299.786 84.8454 312.466 100 338.135 100C349.578 100 360.299 97.8351 369.062 92.9897L371.742 77.6289C363.186 83.7113 352.361 87.1134 343.186 87.1134C330.403 87.1134 320.197 81.7526 321.847 69.5876H374.732C375.35 68.1443 376.175 65.567 376.691 62.4742C379.268 47.5258 374.01 29.5876 348.341 29.5876Z" fill="#0052D9"/>
<path d="M228.241 63.8144C224.633 84.7423 239.272 99.8969 264.013 99.8969C273.91 99.8969 285.662 97.1134 290.095 95.3608L293.291 77.3196C286.384 84.8454 276.9 86.3918 270.199 86.3918C256.591 86.3918 246.282 78.4536 248.653 64.6392C250.715 52.268 262.467 42.7835 277.724 42.7835C283.91 42.7835 292.363 44.8454 297.724 51.8557L300.816 33.5052C296.487 31.8557 289.58 29.4845 279.374 29.4845C251.643 29.5876 231.746 43.7113 228.241 63.8144Z" fill="#0052D9"/>
<path d="M618.333 45.3608C616.478 43.1959 614.416 39.7938 613.179 37.3196H609.055C606.787 40.1031 603.488 43.1959 600.602 45.3608H618.333ZM614.21 53.7113H589.777L597.097 57.0103L595.757 63.7113H611.942L614.21 53.7113ZM625.859 52.1649L623.282 63.7113H628.746C632.457 63.7113 635.137 64.5361 634.415 69.0722C633.178 77.3196 630.91 88.7629 629.158 98.4536H599.468L596.994 89.6907H618.849C619.88 85.0516 621.117 79.2784 621.735 74.6392C621.942 73.0928 621.323 72.4742 619.777 72.4742H582.767L586.066 54.5361C583.386 55.7732 579.365 57.1134 575.448 57.8351L577.819 47.0103C584.726 45.3608 591.736 41.9588 596.066 37.2165H579.572L581.427 28.7629H601.839C602.973 27.2165 603.798 25.1546 604.313 23.7113H582.252L583.901 14.9485H591.839L589.056 2.06186H600.293L602.973 15.1546H606.89C608.128 10.8247 609.055 5.05155 609.158 0.206186H620.601C620.395 5.05155 619.674 10.7216 618.643 15.1546H623.179C624.931 11.134 626.787 6.39175 628.23 2.06186H639.673C638.127 6.08247 636.065 11.0309 634.209 15.1546H642.25L640.085 23.9175H616.169C615.756 25.3608 614.828 27.5258 614.107 28.9691H643.487L641.529 37.4227H624.416C628.127 42.8866 636.89 47.0103 643.694 48.4536L639.879 58.0412C635.034 57.0103 629.983 54.7423 625.859 52.1649ZM613.385 85.3608H575.551L574.005 76.8041H615.241V76.9072L613.385 85.3608ZM568.85 12.1649H563.283C562.356 17.5258 561.531 23.0928 560.397 28.866H567.922L570.706 14.2268C571.118 12.5773 570.397 12.1649 568.85 12.1649ZM566.479 37.732H558.747C557.613 43.5052 556.376 49.5876 555.139 55.567H563.18L566.479 37.732ZM582.046 9.07217C576.582 39.0722 571.634 68.6598 566.067 98.5567H554.83C557.098 87.3196 559.572 75.3608 561.531 64.3299H553.49C551.016 75.8763 548.438 87.5258 546.067 98.5567H534.831C544.315 68.3505 548.954 37.2165 554.315 2.8866H575.345C580.809 2.8866 582.974 3.81443 582.046 9.07217Z" fill="#0052D9"/>
<path d="M736.784 2.98969H684.723L686.991 12.8866H725.856C728.433 12.8866 729.671 13.1959 729.052 16.0825C727.609 24.1237 726.062 32.268 724.516 40.2062H707.609L710.496 23.299L698.64 16.3918L694.311 40.2062H681.734L680.084 50.1031H692.455C689.878 66.1856 686.785 82.5773 683.486 98.5567H696.991C700.084 82.3711 703.279 66.1856 705.96 50.1031H722.763C719.98 66.2887 716.887 82.8866 713.692 98.5567H737.505L741.629 88.5567H728.949C734 62.9897 739.155 36.3918 743.691 10.6186C744.722 5.15464 743.588 2.98969 736.784 2.98969ZM679.569 23.5052C677.919 15.6701 675.754 7.52577 674.002 0H661.425C663.074 7.73196 664.93 15.9794 666.373 23.5052H679.569ZM652.044 28.7629H675.445C673.074 44.3299 670.394 60.2062 667.404 75.9794C671.837 72.6804 676.579 69.0722 680.806 65.3608L678.332 79.7938C670.394 86.4948 659.466 94.3299 649.467 100C653.796 79.7938 657.817 58.4536 660.703 38.6598H650.188L652.044 28.7629Z" fill="#0052D9"/>
</g>
<defs>
<clipPath id="clip0_2045_35">
<rect width="744" height="100" fill="white"/>
</clipPath>
</defs>
</svg>
